#!OML:ASF E:/inclinewalkrobotboard/Project1/Captureday1/Session1/subject1.ASF
:FULLY-SPECIFIED
:DEGREES
176
root 0 0 0 2.197211182478294 -10.006542831977928 1.3802887349052329
lowerback 0.09196870661392298 -1.679418073831967 -3.4637947147151738
upperback -0.8865325148429753 -2.1790093532401644 2.2876229050281895
thorax -0.7034633557661596 -1.0639535251123298 4.281401122977203
lowerneck -27.327359797008032 -1.2370857240312356 -7.972367400124983
upperneck 14.809467964721433 0.5760578029537959 4.295634523034644
head 9.140568187628347 0.23158396437559228 2.8911255156810145
rclavicle 1.3676949018143811E-15 -4.964243587218882E-16
rhumerus -32.51433854014746 -3.3979013585095936 -80.48644985117413
rradius 30.406872858723535
rwrist 19.439424815597206
rhand -17.770069545979972 8.987581014786517
rfingers 7.125019999999977
rthumb 8.48898019153141 -20.83452917097329
lclavicle 8.631356578877339E-16 -1.973692327437517E-16
lhumerus 5.114066245661795 -6.512517269220328 76.21842648199919
lradius 79.73033869687738
lwrist -3.112222021426882
lhand -35.06645306911517 23.708225581235645
lfingers 7.125019999999989
lthumb -8.204696223732839 53.415240566143126
rfemur -24.251361075781116 5.135083422786101 22.903174398578756
rtibia 32.89117412143341
rfoot -6.719183757642151 -8.790632333956829
rtoes 5.172921855558487
lfemur 1.3880069053697732 0.40480556084465125 -22.146130873334645
ltibia 42.441896189436996
lfoot -5.659896231459677 -7.66874582587616
ltoes -10.3691622619378
177
root 0 0 0 1.8971577341417802 -9.257136519445492 1.3518986193928675
lowerback 0.9123292240492209 -1.5503155976116363 -3.2579891803329284
upperback -0.7975078800620534 -1.989015117497146 2.370147172928838
thorax -1.0810241169612973 -0.9665536768853566 4.2471615539123535
lowerneck -29.274008954944378 -1.9576616491242567 -7.493332674733874
upperneck 8.806252997149974 -0.6150932541003696 5.098483433805462
head 7.271310431130656 0.009487037518622995 2.818996215970299
rclavicle -1.7911744002237445E-15 -2.497093070417185E-15
rhumerus -32.681700840661726 -4.402861773924217 -80.12616135403336
rradius 30.03024028512518
rwrist 19.15809072205993
rhand -17.62559151062018 9.395408044589148
rfingers 7.125019999999962
rthumb 8.625781260822462 -20.44871388786516
lclavicle -1.5596172464373752E-15 -1.9172442211780746E-15
lhumerus -6.919328304618276 -5.955051558678826 84.98098354481857
lradius 72.92392665991272
lwrist -1.1936876910831384
lhand -32.831536461855116 22.542843670629157
lfingers 7.125020000000008
lthumb -6.0462822550102 52.334760652544134
rfemur -26.392504056029182 5.413798707353325 25.35635960566796
rtibia 29.175359803144175
rfoot -6.993004550081525 -10.463799084238214
rtoes 7.062387115847444
lfemur 2.8907258495098156 0.19630413670160074 -22.383652527690472
ltibia 45.6776365650839
lfoot -2.9934866596264715 -10.28953330839408
ltoes -9.505055652027714
178
root 0 0 0 1.7645345409233406 -9.09539198525557 1.290534296085463
lowerback 1.1814104108113275 -1.52360690533932 -3.121113277421233
upperback -0.7446621067945768 -1.9414535951494094 2.357532039012334
thorax -1.1838041270501656 -0.9464941901538682 4.153454372054814
lowerneck -29.575169614987377 -2.120836057896439 -7.285952658619881
upperneck 8.106320506159514 -0.8631715862404524 5.051450320709716
head 7.061348919345515 -0.06957715768938041 2.719031409083009
rclavicle -2.205554076937896E-15 -3.561181064217411E-15
rhumerus -32.661573558986056 -4.95983749079722 -79.99767127479802
rradius 29.862800135899754
rwrist 18.792359679504585
rhand -17.585128217012883 9.755544122402336
rfingers 7.1250199999999495
rthumb 8.663837516662657 -20.102130332491356
lclavicle -5.56277349819651E-16 -2.2895948049999232E-15
lhumerus -16.52553458037377 -2.5085660845589954 91.15040970198217
lradius 64.50876161381501
lwrist -0.5236440992439175
lhand -31.256932311306908 20.841697035181063
lfingers 7.125020000000003
lthumb -4.535931982205522 50.67683667404009
rfemur -22.582551368304074 6.466143470022394 28.501445443977715
rtibia 24.271404724853543
rfoot -8.035754104136174 -10.607063691367026
rtoes 7.768537649811224
lfemur -3.831827955987742 0.7413969998533458 -18.362058179205498
ltibia 53.34049951687608
lfoot 4.0344376046176045 -12.75198906933529
ltoes -9.35357888154724
179
root 0 0 0 1.5607910291164748 -8.922142475024893 1.1127427580220737
lowerback 1.4174811202849738 -1.422222655854461 -2.974827893285192
upperback -0.8310456416057309 -1.7888037632861225 2.3033742718514123
thorax -1.4141164372835096 -0.8728151310797373 4.01738138698722
lowerneck -28.33735164336914 -2.006249426373719 -7.129228949097117
upperneck 9.794869685589717 -0.7609632393222011 4.688642670586351
head 7.485847923471386 -0.11420468604761455 2.607437829914952
rclavicle -2.4370047124141774E-15 -3.6417604598215425E-15
rhumerus -32.572649862494806 -5.1040532117315305 -80.03533637402215
rradius 29.86250510238346
rwrist 18.57463778153437
rhand -17.599363400552956 9.921440746532427
rfingers 7.125019999999944
rthumb 8.651139666045772 -19.925980934509674
lclavicle -1.662830415755639E-16 -2.48649757938698E-15
lhumerus -19.428517617056094 0.2818135028883395 93.50839621804786
lradius 60.68713703427072
lwrist -0.8804314506089337
lhand -31.00071753838958 19.66318644430986
lfingers 7.125020000000003
lthumb -4.286533639295033 49.48571069288337
rfemur -10.857715675356106 8.098270877836498 34.34956483612417
rtibia 20.32826323055331
rfoot -10.386442220136043 -8.946364010759922
rtoes 9.584808367325266
lfemur -12.76040672197841 1.438639897405686 -15.099635834191488
ltibia 57.17436581668144
lfoot 4.049162382608689 -10.669634774209687
ltoes -8.286225991992087
